<svg width="30" height="35" viewBox="0 0 30 35" fill="none" xmlns="http://www.w3.org/2000/svg">
<path d="M23.801 5.48333C22.4935 3.96575 21.7728 2.01716 21.773 0H15.861V24.1111C15.8163 25.4162 15.2746 26.6526 14.3501 27.5596C13.4256 28.4665 12.1906 28.973 10.9056 28.9722C8.18878 28.9722 5.93112 26.7167 5.93112 23.9167C5.93112 20.5722 9.10714 18.0639 12.3788 19.0944V12.95C5.77806 12.0556 0 17.2667 0 23.9167C0 30.3917 5.28061 35 10.8865 35C16.8941 35 21.773 30.0417 21.773 23.9167V11.6861C24.1703 13.4358 27.0485 14.3746 30 14.3694V8.36111C30 8.36111 26.4031 8.53611 23.801 5.48333Z" fill="#E96A7A"/>
</svg>
