<svg width="1195" height="2758" viewBox="0 0 1195 2758" fill="none" xmlns="http://www.w3.org/2000/svg">
<path opacity="0.87" d="M139.446 237.91C179.537 178.033 204.327 81.5781 165.327 0.0780655C115.824 -0.0975955 -8.22307 0.0780796 -8.22307 0.0780796L-8.22309 881.962C-7.27359 941.846 95.9703 1158.96 316.825 1068.96C411.825 1037.8 553.7 1026.16 718.5 1100.96C924.5 1194.46 871.825 1368.96 669.325 1439.96C466.825 1510.96 -8.22309 1551.96 -8.22314 1739.46C-8.22317 2020.46 493.325 2117.46 669.325 2136.46C845.325 2155.46 994.825 2301.96 946.325 2383.96C897.825 2465.96 672.825 2526.46 848.825 2758.46L1189.83 2758.46L1189.82 2207.96C1099.83 1971.96 806.456 1945.83 597.825 1859.46C471 1806.96 597.825 1670.96 739 1670.96C825.592 1670.96 1051.32 1574.96 1133.82 1439.96C1216.32 1304.96 1222.6 1000.12 1098.5 881.962C1008.18 795.962 859.825 690.462 627.825 750.462C442.225 798.462 229.248 676.294 139.446 589.462C99.8255 551.152 77.235 460.224 77.4709 393.741C77.7068 327.259 99.3551 297.787 139.446 237.91Z" fill="#FAEAE8"/>
</svg>
